Coordinates
version=1
nRows=32
nColumns=22
inDegrees=yes

Units are S.I. units (second, meters, Newtons, ...)
If the header above contains a line with 'inDegrees', this indicates whether rotational values are in degrees (yes) or radians (no).

endheader
time	pelvis_tilt	pelvis_list	pelvis_rotation	pelvis_tx	pelvis_ty	pelvis_tz	hip_flexion_r	hip_adduction_r	hip_rotation_r	knee_angle_r	ankle_angle_r	subtalar_angle_r	hip_flexion_l	hip_adduction_l	hip_rotation_l	knee_angle_l	ankle_angle_l	subtalar_angle_l	lumbar_extension	lumbar_bending	lumbar_rotation
      0.01000000	      1.94787125	      6.89034923	   -164.77241791	      0.19950163	      0.97491310	      1.15155818	      4.70529053	      4.64809436	    -15.53448092	    -14.70923528	     10.00823039	      0.45249101	      3.20453784	     -6.91199959	     12.53389715	     -8.85025400	     11.57401773	     -0.12444499	      3.69528214	      6.87562472	     -5.66418450
      0.02000000	      1.93721312	      6.88022923	   -164.73748337	      0.19955902	      0.97492694	      1.15160379	      4.69722370	      4.63637419	    -15.55957446	    -14.71453910	      9.99756644	      0.44824418	      3.19565375	     -6.90289546	     12.55869683	     -8.84123160	     11.56839749	     -0.12027482	      3.70379666	      6.87802607	     -5.63599027
      0.03000000	      1.91002607	      6.85497293	   -164.67344927	      0.19963233	      0.97496649	      1.15169811	      4.67046092	      4.60894745	    -15.62132456	    -14.72519180	      9.98777728	      0.42101073	      3.15821496	     -6.88190085	     12.62115009	     -8.80742234	     11.54604303	     -0.10951276	      3.69747560	      6.87013948	     -5.64696717
      0.04000000	      1.89227273	      6.84238194	   -164.62619203	      0.19971025	      0.97498968	      1.15176003	      4.65311740	      4.59639179	    -15.65230476	    -14.72699190	      9.98022653	      0.40983580	      3.14551766	     -6.87115826	     12.65258712	     -8.80006539	     11.53852306	     -0.10599943	      3.70819325	      6.87523837	     -5.60596085
      0.05000000	      1.85346536	      6.81004922	   -164.54748210	      0.19979642	      0.97504504	      1.15186871	      4.61438140	      4.56402273	    -15.72704960	    -14.74039998	      9.97025768	      0.36998784	      3.09181474	     -6.84685319	     12.72814689	     -8.75609593	     11.51117940	     -0.09576296	      3.69619807	      6.86455267	     -5.61851175
      0.06000000	      1.81766036	      6.78597956	   -164.48016996	      0.19988991	      0.97509483	      1.15195974	      4.57705739	      4.54265028	    -15.78233140	    -14.74425979	      9.96297646	      0.33479318	      3.05129329	     -6.82942960	     12.78379042	     -8.72982767	     11.49381730	     -0.09007672	      3.68996281	      6.86406780	     -5.59902691
      0.07000000	      1.78561326	      6.76217825	   -164.41575220	      0.19998807	      0.97514054	      1.15204534	      4.54446482	      4.52119579	    -15.83216599	    -14.74877572	      9.95942937	      0.30746827	      3.01566248	     -6.81115925	     12.83356067	     -8.70551366	     11.47449710	     -0.08435830	      3.68892430	      6.86369524	     -5.57785258
      0.08000000	      1.75334802	      6.73789173	   -164.35191213	      0.20009071	      0.97518660	      1.15212919	      4.51186590	      4.49888291	    -15.88215504	    -14.75454165	      9.95851362	      0.28455232	      2.98018848	     -6.79259836	     12.88234692	     -8.68105750	     11.45553430	     -0.07839334	      3.68749980	      6.86212651	     -5.56027941
      0.09000000	      1.73441225	      6.72448640	   -164.30380854	      0.20019450	      0.97521487	      1.15218479	      4.49335131	      4.48831222	    -15.90750192	    -14.75275832	      9.96051337	      0.27788620	      2.96945375	     -6.78058158	     12.90541369	     -8.67649609	     11.44525647	     -0.07537319	      3.70232639	      6.86910184	     -5.52026165
      0.10000000	      1.69776072	      6.69278296	   -164.23591706	      0.20029626	      0.97526875	      1.15227221	      4.45682719	      4.45780059	    -15.97097539	    -14.76486881	      9.96345504	      0.25943468	      2.92136498	     -6.75687373	     12.96597149	     -8.64013602	     11.41909377	     -0.06589459	      3.69268452	      6.86011474	     -5.52533735
      0.11000000	      1.67982498	      6.68055645	   -164.19469489	      0.20040055	      0.97529635	      1.15232141	      4.43887028	      4.44810180	    -15.99310728	    -14.76104363	      9.96638141	      0.25482977	      2.91083831	     -6.74628530	     12.98476282	     -8.63663426	     11.40993671	     -0.06313281	      3.70553040	      6.86909613	     -5.49122985
      0.12000000	      1.64574269	      6.65282019	   -164.13641900	      0.20050022	      0.97534651	      1.15239260	      4.40466074	      4.42278153	    -16.04713935	    -14.76923506	      9.96985726	      0.24334500	      2.86649187	     -6.72654738	     13.03432012	     -8.60416180	     11.38646640	     -0.05423713	      3.69589876	      6.86402257	     -5.49690362
      0.13000000	      1.61829365	      6.63514228	   -164.09256654	      0.20059541	      0.97538671	      1.15244112	      4.37534874	      4.40947603	    -16.08031119	    -14.76758751	      9.97231650	      0.23648920	      2.83729163	     -6.71497646	     13.06287670	     -8.58709888	     11.37217096	     -0.04906513	      3.69404393	      6.86812082	     -5.48525078
      0.14000000	      1.60279767	      6.62399599	   -164.06065339	      0.20069382	      0.97541025	      1.15247226	      4.35997058	      4.40067062	    -16.10024552	    -14.76461637	      9.97508108	      0.23416253	      2.82591835	     -6.70643986	     13.07691829	     -8.57961654	     11.36302939	     -0.04617350	      3.70390079	      6.87654585	     -5.46360004
      0.15000000	      1.58100578	      6.60805699	   -164.02393437	      0.20078021	      0.97544254	      1.15250582	      4.34011304	      4.38696309	    -16.13553240	    -14.76911313	      9.97724095	      0.23108201	      2.80012527	     -6.69617650	     13.10361160	     -8.56126728	     11.34721899	     -0.04049005	      3.70593256	      6.87909606	     -5.45597404
      0.16000000	      1.55487026	      6.59129864	   -163.98818956	      0.20086692	      0.97547875	      1.15254032	      4.31258345	      4.37449947	    -16.16424973	    -14.76906137	      9.98206096	      0.22768111	      2.76995242	     -6.68618846	     13.12793213	     -8.54255311	     11.33376935	     -0.03535832	      3.70048127	      6.88274112	     -5.46448549
      0.17000000	      1.53582505	      6.58252229	   -163.96629805	      0.20094672	      0.97550388	      1.15255197	      4.29599747	      4.36928880	    -16.18075198	    -14.77071210	      9.98147199	      0.22645086	      2.75120374	     -6.68271536	     13.13805446	     -8.53292907	     11.32801075	     -0.03326131	      3.70315123	      6.89218459	     -5.45534218
      0.18000000	      1.51210468	      6.57095860	   -163.94337511	      0.20101554	      0.97553538	      1.15256416	      4.27422124	      4.36241296	    -16.19971851	    -14.77466735	      9.98445492	      0.22444493	      2.72223515	     -6.67863356	     13.14958085	     -8.51574180	     11.31848842	     -0.03028939	      3.69942192	      6.89919781	     -5.46567967
      0.19000000	      1.50411755	      6.56582154	   -163.93377620	      0.20109616	      0.97554454	      1.15255950	      4.27117551	      4.35867082	    -16.19765165	    -14.77754966	      9.98416057	      0.22423291	      2.71941297	     -6.67506377	     13.14876379	     -8.51604543	     11.31821691	     -0.03021264	      3.71073351	      6.90927561	     -5.46258211
      0.20000000	      1.49582748	      6.56106920	   -163.92623202	      0.20116519	      0.97555366	      1.15254704	      4.26754995	      4.35601807	    -16.19672997	    -14.78118352	      9.98399450	      0.22402789	      2.71566180	     -6.67230342	     13.14846434	     -8.51657005	     11.31770251	     -0.03006987	      3.72194490	      6.91739507	     -5.46041175
      0.21000000	      1.48737651	      6.55664179	   -163.92132157	      0.20122615	      0.97556269	      1.15252993	      4.26368122	      4.35357518	    -16.19659121	    -14.78513261	      9.98398507	      0.22381849	      2.71099120	     -6.67040619	     13.14858584	     -8.51737773	     11.31708310	     -0.02988331	      3.73253789	      6.92460428	     -5.45962875
      0.22000000	      1.47868083	      6.55249130	   -163.91933021	      0.20127869	      0.97557195	      1.15250831	      4.25950200	      4.35163083	    -16.19688204	    -14.78954652	      9.98410637	      0.22361625	      2.70523565	     -6.66902545	     13.14900970	     -8.51856013	     11.31644617	     -0.02966742	      3.74255480	      6.93113650	     -5.46058888
      0.23000000	      1.40868279	      6.53692813	   -163.90867217	      0.20127394	      0.97565690	      1.15249917	      4.18122905	      4.35514723	    -16.23105720	    -14.78605141	      9.99605235	      0.22289053	      2.60963863	     -6.67944148	     13.16006075	     -8.48203696	     11.30961464	     -0.02589036	      3.68465636	      6.94206845	     -5.47967590
      0.24000000	      1.39761244	      6.53223543	   -163.91623882	      0.20131626	      0.97567109	      1.15245914	      4.17390029	      4.35563589	    -16.21055181	    -14.78956569	      9.98786808	      0.22439065	      2.59807587	     -6.67969340	     13.15361767	     -8.48138085	     11.31070156	     -0.02667401	      3.68847886	      6.94734703	     -5.49277330
      0.25000000	      1.36959675	      6.52895460	   -163.93880990	      0.20132397	      0.97570839	      1.15240250	      4.14090722	      4.36583438	    -16.17919536	    -14.77980125	      9.98638252	      0.22755350	      2.56081368	     -6.68874043	     13.12501536	     -8.47391783	     11.31300456	     -0.02838518	      3.67351454	      6.96013981	     -5.48087292
      0.26000000	      1.36225956	      6.52520235	   -163.95245351	      0.20136053	      0.97571801	      1.15235406	      4.13909156	      4.36456087	    -16.17297907	    -14.78560858	      9.98460549	      0.22782781	      2.55226859	     -6.68911431	     13.12282015	     -8.47491171	     11.31366873	     -0.02834206	      3.67778589	      6.96469795	     -5.49425059
      0.27000000	      1.35045810	      6.52243671	   -163.97027747	      0.20138194	      0.97573122	      1.15229090	      4.13266001	      4.36802198	    -16.15048398	    -14.79280093	      9.98405137	      0.22825502	      2.53655674	     -6.69336843	     13.10618118	     -8.47261445	     11.31653293	     -0.02885222	      3.67720608	      6.96830213	     -5.51119734
      0.28000000	      1.34592984	      6.52001200	   -163.98705340	      0.20139633	      0.97573464	      1.15222372	      4.13017548	      4.36936438	    -16.15005957	    -14.79322049	      9.98413944	      0.22831134	      2.53143865	     -6.69527177	     13.10710374	     -8.47786097	     11.31637937	     -0.02880568	      3.68366823	      6.96820476	     -5.51612889
      0.29000000	      1.31878657	      6.51982694	   -164.04939423	      0.20137827	      0.97577119	      1.15210800	      4.09870099	      4.38817398	    -16.06317727	    -14.78286354	      9.98541761	      0.22853741	      2.48587109	     -6.71065006	     13.02564066	     -8.46771510	     11.32801187	     -0.03158793	      3.65761379	      6.98471812	     -5.49365964
      0.30000000	      1.31079946	      6.51705573	   -164.07860511	      0.20138752	      0.97577818	      1.15202339	      4.09746318	      4.38992939	    -16.04523245	    -14.79262230	      9.98062128	      0.22847017	      2.46887557	     -6.71548712	     13.01073798	     -8.46190465	     11.33115126	     -0.03174458	      3.65285370	      6.98534351	     -5.51527410
      0.31000000	      1.29029120	      6.51610000	   -164.14224238	      0.20135913	      0.97580432	      1.15189421	      4.07357872	      4.40497912	    -15.97785755	    -14.78476817	      9.98302956	      0.22548066	      2.42992687	     -6.72838200	     12.94272382	     -8.45480442	     11.33933094	     -0.03430798	      3.62985345	      6.99388695	     -5.48867154
      0.32000000	      1.28385087	      6.51543196	   -164.17966856	      0.20135921	      0.97580669	      1.15179125	      4.07512634	      4.40919415	    -15.95524481	    -14.79608199	      9.98019338	      0.22457701	      2.41350493	     -6.73570446	     12.92218809	     -8.45017328	     11.34451244	     -0.03549470	      3.62172205	      6.99361691	     -5.51461207
